<?xml version="1.0" standalone="no"?>
<!DOCTYPE svg PUBLIC "-//W3C//DTD SVG 20010904//EN"
 "http://www.w3.org/TR/2001/REC-SVG-20010904/DTD/svg10.dtd">
<svg version="1.0" xmlns="http://www.w3.org/2000/svg"
 width="169.000000pt" height="197.000000pt" viewBox="0 0 169.000000 197.000000"
 preserveAspectRatio="xMidYMid meet">

<g transform="translate(0.000000,197.000000) scale(0.100000,-0.100000)"
fill="#000000" stroke="none">
<path d="M560 1651 c-11 -21 -14 -139 -4 -165 7 -19 45 -21 62 -4 7 7 12 41
12 83 0 57 -4 75 -18 88 -24 22 -39 21 -52 -2z"/>
<path d="M1197 1659 c-14 -8 -17 -24 -17 -87 0 -88 7 -105 41 -100 23 3 24 7
27 90 2 75 0 88 -15 97 -12 6 -25 6 -36 0z"/>
<path d="M403 1569 c-21 -13 -36 -34 -43 -57 -12 -45 -13 -189 -1 -196 5 -3
253 -6 552 -6 l544 -1 3 93 c3 73 0 100 -14 125 -20 37 -67 63 -118 63 l-36 0
0 -54 c0 -69 -26 -106 -75 -106 -49 0 -75 37 -75 106 l0 54 -240 0 -240 0 0
-60 c0 -70 -21 -100 -70 -100 -49 0 -70 30 -70 100 l0 60 -42 0 c-26 0 -56 -9
-75 -21z"/>
<path d="M355 1237 c-3 -7 -4 -170 -3 -361 l3 -348 37 -34 38 -34 471 0 c418
0 474 2 499 16 60 36 60 39 60 423 l0 351 -50 0 -50 0 0 -321 c0 -202 -4 -327
-10 -340 -10 -18 -26 -19 -445 -19 -239 0 -436 1 -437 3 -1 1 -5 153 -8 337
l-5 335 -48 3 c-33 2 -49 -1 -52 -11z"/>
<path d="M858 1165 c-42 -48 -45 -55 -23 -55 12 0 15 -15 15 -73 0 -99 11
-106 67 -46 40 43 45 53 39 80 -5 25 -2 32 14 36 18 5 16 10 -21 54 -22 27
-44 49 -47 49 -4 -1 -24 -20 -44 -45z"/>
<path d="M1205 1180 c-12 -4 -37 -10 -57 -13 -46 -6 -65 -17 -48 -27 22 -13 1
-43 -110 -160 l-109 -115 -74 73 -73 72 -31 -32 -32 -33 104 -106 105 -106
159 163 c151 154 161 161 180 147 21 -14 21 -13 21 66 0 45 -3 81 -7 80 -5 0
-17 -4 -28 -9z"/>
<path d="M1081 856 l-52 -53 7 -61 7 -62 42 0 42 0 5 113 c3 61 4 113 4 114
-1 1 -26 -21 -55 -51z"/>
<path d="M670 772 l0 -92 50 0 50 0 0 43 c0 38 -5 48 -50 92 l-50 49 0 -92z"/>
<path d="M925 700 c-18 -19 -17 -20 3 -20 15 0 22 6 22 20 0 11 -2 20 -3 20
-2 0 -12 -9 -22 -20z"/>
</g>
</svg>
